<svg width="33" height="34" viewBox="0 0 33 34" fill="none" xmlns="http://www.w3.org/2000/svg">
    <path d="M0.5 1L0.5 32.856" stroke="white" stroke-linecap="round" />
    <path d="M4.79956 4.18549L4.79956 30.2012" stroke="white" stroke-linecap="round" />
    <path d="M30.0547 19.3173L8.82928 30.2014" stroke="white" stroke-linecap="round" />
    <path d="M27.6367 18.2553L9.09807 27.8121" stroke="white" stroke-linecap="round" />
    <path d="M2.91797 2.59271L2.8201 30.3234" stroke="white" stroke-linecap="round" />
    <path d="M30.0547 15.6006V19.2884" stroke="white" stroke-linecap="round" />
    <path d="M27.6367 16.928V18.2553" stroke="white" stroke-linecap="round" />
    <path d="M0.5 1.00001L9.07695 1.00001" stroke="white" stroke-linecap="round" />
    <path d="M2.91797 2.59271H6.41076" stroke="white" stroke-linecap="round" />
    <path d="M6.41016 4.18549L9.36559 4.18549" stroke="white" stroke-linecap="round" />
    <path d="M4.79956 30.2013L8.8297 30.2013" stroke="white" stroke-linecap="round" />
    <path d="M32.472 20.6446L32.4723 13.2115" stroke="white" stroke-linecap="round" />
    <path d="M0.5 32.856H9.12527" stroke="white" stroke-linecap="round" />
    <path d="M9.09766 1L32.4725 13.2115" stroke="white" stroke-linecap="round" />
    <path d="M9.36597 4.18549L30.054 15.6006" stroke="white" stroke-linecap="round" />
    <path d="M15.2773 10.0259L27.6364 16.9281" stroke="white" stroke-linecap="round" />
    <path d="M32.4727 20.6445L9.09784 32.856" stroke="white" stroke-linecap="round" />
    <path d="M6.67969 27.812H9.09777" stroke="white" stroke-linecap="round" />
</svg>