<svg width="25" height="26" viewBox="0 0 25 26" fill="none" xmlns="http://www.w3.org/2000/svg">
<path d="M0.5 1L0.5 24.892" stroke="white" stroke-linecap="round"/>
<path d="M3.72412 3.3891L3.72412 22.9009" stroke="white" stroke-linecap="round"/>
<path d="M22.6665 14.7379L6.74694 22.901" stroke="white" stroke-linecap="round"/>
<path d="M20.8542 13.9415L6.94982 21.1091" stroke="white" stroke-linecap="round"/>
<path d="M2.3147 2.19452L2.24129 22.9925" stroke="white" stroke-linecap="round"/>
<path d="M22.6665 11.9505V14.7163" stroke="white" stroke-linecap="round"/>
<path d="M20.8542 12.946V13.9415" stroke="white" stroke-linecap="round"/>
<path d="M0.5 1L6.93292 1" stroke="white" stroke-linecap="round"/>
<path d="M2.3147 2.19452H4.93437" stroke="white" stroke-linecap="round"/>
<path d="M4.93188 3.3891L7.14853 3.3891" stroke="white" stroke-linecap="round"/>
<path d="M3.72412 22.901L6.74682 22.901" stroke="white" stroke-linecap="round"/>
<path d="M24.4754 15.7334L24.4797 10.1587" stroke="white" stroke-linecap="round"/>
<path d="M0.5 24.892H6.96916" stroke="white" stroke-linecap="round"/>
<path d="M6.94751 1L24.4792 10.1586" stroke="white" stroke-linecap="round"/>
<path d="M7.14966 3.3891L22.6662 11.9504" stroke="white" stroke-linecap="round"/>
<path d="M11.5842 7.76947L20.8538 12.9461" stroke="white" stroke-linecap="round"/>
<path d="M24.4802 15.7334L6.94848 24.8919" stroke="white" stroke-linecap="round"/>
<path d="M5.13477 21.109H6.94839" stroke="white" stroke-linecap="round"/>
</svg>
